<svg id="svg" version="1.1" xmlns="http://www.w3.org/2000/svg" xmlns:xlink="http://www.w3.org/1999/xlink" width="400" height="400" viewBox="0, 0, 400,400"><g id="svgg"><path id="path0" d="M200.000 50.000 L 200.000 100.000 150.000 100.000 L 100.000 100.000 100.000 150.000 L 100.000 200.000 50.000 200.000 L 0.000 200.000 0.000 250.000 L 0.000 300.000 49.998 300.000 L 99.997 300.000 100.098 250.100 L 100.200 200.200 150.098 200.098 L 199.997 199.997 200.098 150.098 L 200.200 100.200 250.100 100.098 L 300.000 99.997 300.000 49.998 L 300.000 0.000 250.000 0.000 L 200.000 0.000 200.000 50.000 " stroke="none" fill="#1ca434" fill-rule="evenodd"></path><path id="path1" d="M100.000 50.000 L 100.000 100.000 50.000 100.000 L 0.000 100.000 0.000 150.000 L 0.000 200.000 50.000 200.000 L 100.000 200.000 100.000 150.000 L 100.000 100.000 150.000 100.000 L 200.000 100.000 200.000 50.000 L 200.000 0.000 150.000 0.000 L 100.000 0.000 100.000 50.000 " stroke="none" fill="#1c8c2c" fill-rule="evenodd"></path><path id="path2" d="M300.000 250.000 L 300.000 300.000 250.000 300.000 L 200.000 300.000 200.000 350.000 L 200.000 400.000 250.000 400.000 L 300.000 400.000 300.000 350.000 L 300.000 300.000 350.000 300.000 L 400.000 300.000 400.000 250.000 L 400.000 200.000 350.000 200.000 L 300.000 200.000 300.000 250.000 " stroke="none" fill="#2cdc4c" fill-rule="evenodd"></path><path id="path3" d="M300.000 150.000 L 300.000 200.000 250.000 200.000 L 200.000 200.000 200.000 250.000 L 200.000 300.000 150.000 300.000 L 100.000 300.000 100.000 350.000 L 100.000 400.000 150.000 400.000 L 200.000 400.000 200.000 350.000 L 200.000 300.000 250.000 300.000 L 300.000 300.000 300.000 250.000 L 300.000 200.000 350.000 200.000 L 400.000 200.000 400.000 150.000 L 400.000 100.000 350.000 100.000 L 300.000 100.000 300.000 150.000 " stroke="none" fill="#24cc44" fill-rule="evenodd"></path><path id="path4" d="M300.000 49.998 L 300.000 99.997 250.100 100.098 L 200.200 100.200 200.098 150.098 L 199.997 199.997 150.098 200.098 L 100.200 200.200 100.098 250.100 L 99.997 300.000 49.998 300.000 L 0.000 300.000 0.000 350.000 L 0.000 400.000 50.000 400.000 L 100.000 400.000 100.000 350.000 L 100.000 300.000 150.000 300.000 L 200.000 300.000 200.000 250.000 L 200.000 200.000 250.000 200.000 L 300.000 200.000 300.000 150.000 L 300.000 100.000 350.000 100.000 L 400.000 100.000 400.000 50.000 L 400.000 0.000 350.000 0.000 L 300.000 0.000 300.000 49.998 " stroke="none" fill="#1cbc3c" fill-rule="evenodd"></path><path id="path5" d="M300.000 350.000 L 300.000 400.000 350.000 400.000 L 400.000 400.000 400.000 350.000 L 400.000 300.000 350.000 300.000 L 300.000 300.000 300.000 350.000 " stroke="none" fill="#44dc64" fill-rule="evenodd"></path><path id="path6" d="M0.000 50.000 L 0.000 100.000 50.000 100.000 L 100.000 100.000 100.000 50.000 L 100.000 0.000 50.000 0.000 L 0.000 0.000 0.000 50.000 " stroke="none" fill="#147424" fill-rule="evenodd"></path><path id="path7" d="" stroke="none" fill="#1cb84c" fill-rule="evenodd"></path><path id="path8" d="" stroke="none" fill="#1cc430" fill-rule="evenodd"></path></g></svg>